<svg version="1.1" id="Layer_1" xmlns="http://www.w3.org/2000/svg" xmlns:xlink="http://www.w3.org/1999/xlink" x="0px" y="0px"
	 width="100%" viewBox="0 0 1031 301" enable-background="new 0 0 1031 301" xml:space="preserve">
<path fill="#FEFEFF" opacity="1.000000" stroke="none" 
	d="
M743.000000,302.000000 
	C495.333374,302.000000 248.166748,302.000000 1.000099,302.000000 
	C1.000066,201.666733 1.000066,101.333458 1.000033,1.000140 
	C344.666534,1.000093 688.333069,1.000093 1031.999756,1.000047 
	C1031.999756,101.333191 1031.999756,201.666382 1031.999878,301.999786 
	C935.833313,302.000000 839.666687,302.000000 743.000000,302.000000 
M222.391434,165.884872 
	C220.604904,166.277313 218.518097,167.458725 217.088089,166.914459 
	C212.775482,165.273026 209.063904,165.879745 205.193283,168.095322 
	C190.594849,176.451569 175.923935,184.681061 161.288177,192.972229 
	C159.429489,194.025177 157.618332,195.162018 155.757019,196.276855 
	C164.695984,196.276855 173.178696,196.311676 181.660995,196.265686 
	C188.315109,196.229614 193.575928,198.603897 197.153229,204.462692 
	C201.172882,211.045990 199.862015,216.696701 192.693405,219.355362 
	C187.616196,221.238358 181.995941,221.598099 176.728363,223.040466 
	C168.451706,225.306778 159.333496,226.402130 152.285385,230.763077 
	C143.799042,236.013947 135.198822,237.723221 125.836090,237.948425 
	C120.497559,238.076843 111.921417,233.132278 109.449310,228.374008 
	C112.849525,229.606003 115.704559,230.407700 118.357567,231.643188 
	C128.337296,236.290695 137.466049,233.034470 146.523209,228.841980 
	C151.473083,226.550720 156.197174,223.422318 161.387375,222.078751 
	C169.884369,219.879181 178.675552,218.810623 187.348236,217.296906 
	C194.291061,216.085129 196.497879,211.112946 191.652710,206.045578 
	C189.242828,203.525162 185.150009,201.472122 181.711166,201.295303 
	C172.092392,200.800766 162.417023,201.527466 152.765457,201.479355 
	C149.745987,201.464294 146.503754,201.057877 143.755157,199.900452 
	C133.943634,195.768890 124.430397,190.915482 114.562759,186.933792 
	C100.173996,181.127792 85.226570,177.669128 69.694031,181.054703 
	C58.665253,183.458618 47.067131,187.341278 41.388474,197.260559 
	C33.342579,211.314819 27.234196,226.605972 21.525106,241.828796 
	C17.189014,253.390594 21.738518,264.767761 32.504936,271.112335 
	C39.001995,274.940979 46.526947,277.019012 53.572983,279.924957 
	C57.321087,281.470795 60.668526,280.664825 63.932861,278.528992 
	C72.294540,273.058044 81.380936,268.452667 88.922462,262.027954 
	C99.763283,252.792511 111.009964,252.700714 123.332237,257.225983 
	C124.737595,257.742096 126.153755,258.288025 127.612572,258.589539 
	C136.386017,260.402832 145.112045,263.162292 153.969330,263.698334 
	C170.501999,264.698914 184.865631,257.215759 198.139145,248.577682 
	C221.589050,233.317017 244.474136,217.184235 267.496063,201.272430 
	C275.463287,195.765808 274.686676,186.262985 266.158234,181.555939 
	C265.462616,181.172012 264.754944,180.809906 264.077820,180.450897 
	C265.460419,174.850769 263.594360,170.865463 259.075897,167.817383 
	C254.020233,164.406937 249.570679,167.371689 245.128662,169.122849 
	C238.897522,159.738098 234.465363,158.621674 225.602005,163.978012 
	C224.746811,164.494843 223.886398,165.003052 222.391434,165.884872 
M205.276321,37.101196 
	C185.138214,27.620867 172.836227,30.290653 154.756042,47.650295 
	C149.489365,43.545418 144.840424,38.415012 139.057480,35.699905 
	C122.327911,27.845337 106.935432,32.139908 93.969864,44.156284 
	C81.863655,55.376217 78.452171,70.070984 80.637924,86.172371 
	C81.253777,90.709145 83.706924,92.776917 88.504944,92.070663 
	C91.113762,91.686668 93.896744,91.607086 96.478241,92.072311 
	C106.318474,93.845673 112.935181,90.580727 116.395988,80.848419 
	C117.077110,78.932976 119.886269,77.774261 121.713997,76.266548 
	C123.100128,78.131187 125.103943,79.799797 125.768387,81.893471 
	C129.137558,92.509651 132.159088,103.236153 135.501434,114.600601 
	C140.802521,95.916176 145.873993,77.999115 150.988602,60.094364 
	C151.393784,58.675919 151.801422,57.085209 152.724091,56.022873 
	C154.766144,53.671722 157.026535,53.479809 158.658585,56.564713 
	C159.350235,57.872055 159.677887,59.374264 160.151154,60.794510 
	C164.776688,74.675598 169.397995,88.558075 173.938919,102.195107 
	C177.277420,98.735535 179.950012,94.020103 183.889084,92.417542 
	C188.038300,90.729462 193.397537,92.015213 198.228104,92.002510 
	C199.061020,92.000320 199.894424,92.020699 200.726791,91.999367 
	C203.752655,91.921829 206.893814,92.241814 206.798355,96.104729 
	C206.703262,99.952621 203.412292,100.454193 200.524277,99.930305 
	C189.709396,97.968483 182.031265,101.622223 177.266205,111.699242 
	C176.517349,113.282906 173.880173,115.148994 172.448334,114.908302 
	C170.976624,114.660904 169.382568,112.175064 168.755737,110.354240 
	C164.964432,99.341202 161.443802,88.235115 157.807877,77.168289 
	C157.282104,75.568016 156.622894,74.011574 155.637360,71.410660 
	C152.884064,80.788963 150.489105,88.918274 148.111435,97.052650 
	C145.077560,107.432014 142.161285,117.848038 138.919144,128.161743 
	C138.436768,129.696228 136.409439,131.803558 135.167358,131.757187 
	C133.794998,131.705963 132.214874,129.662201 131.263489,128.148087 
	C130.416702,126.800453 130.322479,124.985825 129.866684,123.385689 
	C126.790749,112.587112 123.706970,101.790771 120.373352,90.109329 
	C119.153801,91.831703 118.280090,92.631554 117.941650,93.615517 
	C116.037254,99.152145 112.063263,100.283867 106.604057,100.109352 
	C95.121513,99.742264 83.618454,99.932640 72.125168,100.039406 
	C68.874474,100.069595 64.158905,98.742554 64.233963,104.180649 
	C64.302277,109.129578 68.705269,108.072784 71.886330,108.118202 
	C77.715576,108.201439 83.566666,107.864098 89.367615,108.277641 
	C91.714378,108.444939 94.550232,109.544968 96.149689,111.200211 
	C112.791214,128.422180 131.750656,142.768738 151.274719,156.462891 
	C153.682404,158.151657 155.324005,157.698746 157.439316,156.150650 
	C164.022659,151.332596 170.908646,146.911942 177.334183,141.897552 
	C193.226471,129.495438 209.349396,117.194275 220.866745,100.321091 
	C224.517593,94.972511 228.159637,88.526405 228.665985,82.326134 
	C230.231735,63.154110 223.301086,47.448601 205.276321,37.101196 
M392.080231,114.576393 
	C391.289551,89.112991 380.549561,74.293907 351.847717,75.422630 
	C342.944885,75.772736 334.016663,75.477097 325.239563,75.477097 
	C325.239563,104.320114 325.239563,131.884140 325.239563,159.695541 
	C337.926941,159.695541 350.236206,160.094299 362.507568,159.582993 
	C374.695038,159.075180 384.298187,153.067215 388.180878,141.454651 
	C390.909302,133.294342 390.902039,124.219360 392.080231,114.576393 
M876.329224,160.009857 
	C878.441589,159.851166 880.553955,159.692490 882.876465,159.518021 
	C885.090027,144.912811 887.238953,130.733917 889.387939,116.555038 
	C890.315063,118.273766 890.677551,120.026070 890.932251,121.793900 
	C892.356140,131.676987 893.662964,141.577942 895.193970,151.444214 
	C896.148132,157.593826 898.566895,159.660065 904.917358,159.946899 
	C908.905945,160.127060 912.912903,159.866028 916.906250,159.984863 
	C920.078125,160.079269 921.469666,158.912766 922.219788,155.605652 
	C925.639038,140.530640 929.446960,125.544144 933.066345,110.514053 
	C935.965271,98.475960 934.487793,96.939354 921.650085,98.096733 
	C918.830322,98.350952 917.335876,99.143318 916.748474,102.372002 
	C914.182007,116.479050 911.235840,130.517014 908.427551,144.580063 
	C908.249878,144.607132 908.072205,144.634201 907.894531,144.661270 
	C905.557678,129.485947 903.220886,114.310608 900.887085,99.154816 
	C897.265442,98.932350 894.282043,98.692856 891.293823,98.575287 
	C878.475037,98.070999 878.600037,98.100517 876.932800,110.832970 
	C875.448608,122.166412 873.645020,133.458023 871.982422,144.768112 
	C869.007568,131.973862 866.656738,119.249886 864.089233,106.569778 
	C862.490723,98.675110 859.939697,96.938286 851.845093,97.909431 
	C849.463074,98.195221 847.143738,99.003143 844.380920,99.672211 
	C847.852844,114.791023 851.132996,129.362045 854.554932,143.899704 
	C858.449646,160.446075 858.504700,160.433121 876.329224,160.009857 
M712.845642,140.314514 
	C711.486694,142.771469 710.052734,145.190536 708.788086,147.695099 
	C707.255676,150.730072 707.965027,152.579315 711.268616,154.313599 
	C723.710327,160.845093 736.707336,162.905106 750.390015,159.897568 
	C760.781189,157.613556 768.673645,149.515076 770.046448,140.306870 
	C771.815063,128.443848 767.897095,119.986153 757.534546,113.832771 
	C754.694458,112.146309 751.578369,110.917206 748.562866,109.535194 
	C743.586609,107.254555 738.380005,105.383049 733.659729,102.663490 
	C729.022583,99.991875 729.201721,94.432449 733.866028,91.783684 
	C735.911316,90.622185 738.729065,89.788086 740.958679,90.174583 
	C748.071045,91.407524 755.072144,93.282654 763.557556,95.242691 
	C765.217041,91.348717 767.259644,86.555672 769.312683,81.738022 
	C755.844238,75.461205 743.201904,72.777473 729.803711,76.007278 
	C719.700745,78.442726 712.202209,86.476822 710.733154,96.154335 
	C709.154968,106.551170 712.731018,113.654037 722.794861,119.698402 
	C725.490173,121.317238 728.376831,122.637642 731.243469,123.946510 
	C735.622009,125.945717 740.184387,127.578178 744.434509,129.812012 
	C748.179993,131.780640 750.683838,134.812714 749.401733,139.565170 
	C748.112854,144.342590 744.485962,145.367813 740.176147,145.471207 
	C732.271545,145.660782 725.140015,143.143997 718.348572,139.390518 
	C716.569580,138.407272 714.823730,137.223022 712.845642,140.314514 
M997.971375,154.280746 
	C998.078918,152.760727 998.488342,151.187729 998.232910,149.731384 
	C997.647766,146.395966 996.219421,143.141571 996.064697,139.811020 
	C995.709900,132.170807 996.125366,124.496635 995.835815,116.851112 
	C995.439148,106.377625 989.739014,99.551361 979.443909,97.913643 
	C968.052795,96.101608 957.173767,98.961906 946.133484,102.586464 
	C946.886597,105.668823 947.426636,108.253204 948.157532,110.782417 
	C949.235901,114.513741 951.248230,116.281502 955.472961,114.724213 
	C958.719543,113.527451 962.197815,112.865349 965.626404,112.275436 
	C973.167053,110.978004 976.306946,113.679398 976.677307,121.899399 
	C973.211853,121.899399 969.658386,121.393997 966.317810,122.021660 
	C961.677307,122.893555 956.777893,123.868515 952.737000,126.133316 
	C945.023560,130.456329 942.222839,139.838379 944.967957,148.835327 
	C947.368713,156.703903 954.372437,161.968246 963.328369,160.913055 
	C969.321655,160.206924 975.067383,157.399567 981.514709,155.344116 
	C988.638123,162.104996 993.310364,162.236420 997.971375,154.280746 
M435.349731,96.937958 
	C421.543732,95.935844 410.899902,103.661110 407.270294,116.665222 
	C404.998413,124.804863 405.040222,133.142334 407.171387,141.345535 
	C410.114227,152.672897 419.258667,160.369370 430.206390,160.996292 
	C445.275757,161.859268 454.463257,156.615158 459.232605,144.225662 
	C462.636902,135.382263 462.614960,126.313110 460.316956,117.233513 
	C457.211578,104.963814 448.911926,98.046722 435.349731,96.937958 
M625.797058,98.378822 
	C607.947815,93.362938 595.733459,101.098595 591.178040,111.112801 
	C586.053101,122.379059 585.795715,133.977417 590.447815,145.451553 
	C594.283081,154.911072 601.630981,160.078796 611.768005,160.954544 
	C623.141968,161.937164 633.322998,159.187943 638.833008,148.370163 
	C641.523499,143.087830 642.776245,136.756088 643.344971,130.772491 
	C644.771606,115.761993 638.453125,104.381363 625.797058,98.378822 
M805.888916,144.830460 
	C804.306519,141.929199 802.724182,139.027939 800.555969,135.052612 
	C812.700134,135.052612 823.126343,135.052612 834.253540,135.052612 
	C834.506714,129.854843 835.080383,125.077408 834.902466,120.328125 
	C834.483643,109.146469 827.684998,100.789467 817.042419,97.792198 
	C805.974243,94.675064 794.304688,98.566452 788.227966,107.400826 
	C780.708313,118.332848 780.332886,140.349487 788.084351,151.095673 
	C790.490540,154.431488 794.143311,157.739594 797.922241,159.048813 
	C808.839539,162.831009 819.723999,161.942261 830.233459,156.572968 
	C835.197632,154.036804 832.761047,150.847977 831.624756,147.836151 
	C830.527344,144.927444 829.108032,142.848465 824.939026,144.449829 
	C819.071228,146.703659 812.826721,148.319702 805.888916,144.830460 
M489.728394,159.024765 
	C498.966980,162.472916 508.085968,161.941376 516.801819,157.553375 
	C526.279968,152.781616 527.286499,151.392349 518.822144,142.103180 
	C518.518555,141.770020 517.920898,141.704803 518.453552,141.924652 
	C513.448608,143.573654 509.317505,145.372665 504.999634,146.220779 
	C501.453339,146.917313 497.619537,145.887772 496.145782,142.132858 
	C492.548492,132.967468 492.686920,123.543655 496.104584,114.386520 
	C496.694427,112.806129 499.824615,111.120026 501.585052,111.309265 
	C503.581024,111.523804 506.027802,113.423119 507.046478,115.269669 
	C508.163666,117.294739 507.704651,120.135445 508.270996,122.541031 
	C508.553802,123.742439 509.708191,125.775139 510.268402,125.710091 
	C514.583801,125.208992 519.821350,125.493874 522.809387,123.092194 
	C525.005981,121.326637 524.579773,115.878220 524.639771,112.060257 
	C524.667664,110.287575 523.282410,108.346626 522.180115,106.725029 
	C512.205872,92.051414 487.673126,93.674110 479.055664,109.976372 
	C476.357758,115.080147 474.787933,121.299477 474.557617,127.082100 
	C474.051544,139.786194 476.281616,151.818512 489.728394,159.024765 
M543.319031,125.505066 
	C543.526672,133.146423 543.415283,140.814087 544.042358,148.420868 
	C544.548584,154.561630 548.645386,159.277374 554.259399,159.691803 
	C561.254578,160.208221 568.332031,159.610382 575.237061,159.495972 
	C575.572327,157.680099 575.855469,157.014908 575.783630,156.390549 
	C575.406921,153.117493 575.683289,149.443436 574.197021,146.758957 
	C573.433533,145.379913 569.309692,146.169312 567.002136,145.239624 
	C565.157837,144.496567 562.442566,142.691360 562.382751,141.262695 
	C561.975708,131.532425 562.169678,121.776993 562.169678,111.719818 
	C567.289734,111.719818 571.882751,111.719818 576.629761,111.719818 
	C576.629761,107.217522 576.629761,103.046463 576.629761,98.573288 
	C571.511841,98.573288 566.938660,98.573288 562.035400,98.573288 
	C562.035400,95.292854 562.035461,92.321281 562.035461,89.349709 
	C562.035461,86.425873 562.035400,83.502045 562.035400,79.397118 
	C556.501831,80.312294 551.227600,79.952744 547.350220,82.107117 
	C541.134216,85.560959 544.354065,92.980438 542.840881,98.659500 
	C539.921814,98.659500 537.131958,98.659500 533.684143,98.659500 
	C533.684143,103.131958 533.684143,107.432777 533.684143,112.162750 
	C537.219055,112.162750 540.144409,112.162750 543.319092,112.162750 
	C543.319092,116.561562 543.319092,120.534203 543.319031,125.505066 
M660.710022,98.824791 
	C659.399780,101.989647 656.887451,105.219643 657.054626,108.304436 
	C657.320068,113.202347 660.232849,117.957039 660.496826,122.854698 
	C661.068848,133.469360 660.663879,144.136185 660.683289,154.781647 
	C660.686157,156.364288 660.824097,157.946686 660.920715,159.971268 
	C666.294678,159.971268 671.100403,159.893906 675.902100,159.999344 
	C678.934631,160.065933 679.851990,158.783981 679.804199,155.795197 
	C679.642090,145.651306 680.208069,135.473587 679.564819,125.368057 
	C679.188904,119.463356 684.976135,114.245476 690.534363,115.588486 
	C696.252930,116.970222 697.636963,114.201050 698.645386,110.024635 
	C699.492188,106.517975 700.083435,102.949638 700.987976,98.402550 
	C696.233276,98.402550 691.758911,97.294746 688.283508,98.684669 
	C683.997986,100.398537 680.543945,104.191338 676.586792,107.194870 
	C673.542725,102.028801 668.876099,97.670609 660.710022,98.824791 
M722.345459,220.832138 
	C720.590210,215.236252 716.371033,213.961838 706.369019,215.893158 
	C706.369019,222.834900 706.369019,229.717773 706.369019,236.600632 
	C706.976074,236.649918 707.583130,236.699203 708.190186,236.748489 
	C708.526855,233.797592 708.863525,230.846695 709.193298,227.956802 
	C717.477905,227.274384 717.401001,227.295181 719.298035,234.305817 
	C719.573120,235.322647 720.993713,236.029495 722.254089,237.232910 
	C723.056641,231.203491 719.390991,226.447922 722.345459,220.832138 
M814.984924,227.973022 
	C815.646484,229.867767 816.202820,231.808701 817.006958,233.640839 
	C817.536316,234.847122 818.422852,235.896622 819.149414,237.016312 
	C821.024658,231.280151 817.674072,226.566452 819.913269,221.286346 
	C821.141724,218.389526 818.421631,215.905640 815.187744,215.640152 
	C811.454529,215.333710 807.676880,215.568909 803.475037,215.568909 
	C803.569031,222.835556 802.776184,229.799728 803.867676,236.654053 
	C804.560486,236.668137 805.253357,236.682220 805.946228,236.696320 
	C806.238037,233.797668 806.529907,230.899033 806.846313,227.756317 
	C809.498718,227.756317 811.795715,227.756317 814.984924,227.973022 
M429.002014,232.932312 
	C429.036896,229.099442 426.785461,225.426361 428.825104,221.301819 
	C429.311523,220.318207 426.721466,216.381790 425.112823,216.074707 
	C421.052643,215.299652 416.745605,215.817871 412.243164,215.817871 
	C412.778595,223.012939 411.362671,229.942596 413.067291,236.566055 
	C413.713318,236.535934 414.359314,236.505814 415.005310,236.475708 
	C415.242676,233.649857 415.480011,230.824020 415.759583,227.495285 
	C418.941772,227.760193 422.072693,227.289459 424.312195,228.486542 
	C425.617432,229.184250 425.333832,232.611374 426.096619,234.688736 
	C426.393982,235.498688 427.601166,235.974594 428.393890,236.602676 
	C428.605255,235.641617 428.816620,234.680573 429.002014,232.932312 
M912.328064,218.071304 
	C914.247437,218.071304 916.166870,218.071304 918.086243,218.071304 
	C918.118225,217.543030 918.150146,217.014771 918.182129,216.486496 
	C913.471252,213.965820 908.251648,215.999344 903.167908,215.289062 
	C903.167908,222.670349 903.167908,229.545044 903.167908,236.384735 
	C914.772705,237.282303 916.799988,237.010071 918.493347,233.874283 
	C914.135864,233.874283 910.071655,233.874283 906.091187,233.874283 
	C906.091187,231.361267 906.091187,229.418869 906.091187,226.789032 
	C909.929565,226.789032 913.560608,226.789032 917.191650,226.789032 
	C917.239624,226.167709 917.287598,225.546402 917.335510,224.925079 
	C913.571350,224.584808 909.807129,224.244537 905.840820,223.886002 
	C905.935730,221.809891 906.015259,220.071365 906.106689,218.071304 
	C908.132812,218.071304 909.774841,218.071304 912.328064,218.071304 
M365.019440,214.980408 
	C364.025726,214.934280 363.028442,214.809540 362.038910,214.854874 
	C355.971619,215.132797 351.979675,219.820831 352.278931,226.270233 
	C352.598572,233.159439 356.895020,237.348312 363.304932,237.020065 
	C368.238373,236.767456 371.764404,233.562637 372.791107,228.398132 
	C373.912231,222.758575 371.396881,217.936218 365.019440,214.980408 
M776.486877,233.070358 
	C777.381775,234.261658 778.171631,236.362579 779.190430,236.480179 
	C782.793579,236.896118 786.478882,236.721130 790.123535,236.557358 
	C790.887817,236.522995 791.611450,235.583176 792.353821,235.060608 
	C792.216125,234.687027 792.078369,234.313461 791.940674,233.939880 
	C787.873474,233.939880 783.806213,233.939880 779.650757,233.939880 
	C779.650757,231.462524 779.650757,229.502136 779.650757,227.339462 
	C783.544678,227.121475 787.290894,226.911743 791.037048,226.702026 
	C791.049500,226.033508 791.062012,225.365005 791.074463,224.696487 
	C787.392151,224.506638 783.709839,224.316772 779.771912,224.113739 
	C779.771912,222.069534 779.771912,220.317947 779.771912,218.314774 
	C783.859802,218.118759 787.935974,217.923325 792.012146,217.727875 
	C792.011047,217.191177 792.010010,216.654465 792.008972,216.117767 
	C787.030396,216.117767 782.051819,216.117767 776.486633,216.117767 
	C776.486633,221.293228 776.486633,226.726089 776.486877,233.070358 
M751.326294,235.597809 
	C754.541443,235.925537 757.949219,237.028397 760.900513,236.294662 
	C762.714966,235.843552 764.831238,232.643173 764.952942,230.568222 
	C765.055115,228.826889 762.767639,226.503250 760.975159,225.229935 
	C759.486328,224.172318 757.043640,224.562012 755.278076,223.754211 
	C754.013977,223.175812 753.170532,221.677933 752.139343,220.590332 
	C753.264404,219.566788 754.447937,217.643051 755.502014,217.711517 
	C757.547424,217.844345 759.554932,219.021072 761.507263,219.919373 
	C762.400635,220.330414 763.126038,221.106522 763.927612,221.717087 
	C764.398621,221.177124 764.869629,220.637177 765.340637,220.097229 
	C763.604431,218.461380 762.054504,215.790497 760.087708,215.436584 
	C757.263123,214.928314 753.593445,215.263596 751.258728,216.759399 
	C747.454712,219.196609 748.758850,224.446442 753.187988,226.041824 
	C755.359314,226.823959 757.738464,227.061890 759.855530,227.947723 
	C760.879456,228.376160 762.080933,229.682144 762.167969,230.680923 
	C762.254700,231.675735 761.243835,233.467987 760.371521,233.718750 
	C757.205811,234.628815 753.726257,235.500229 751.759216,231.529236 
	C751.264771,230.530930 751.250427,229.294754 751.015442,228.167892 
	C750.137390,228.892624 749.259338,229.617371 748.381226,230.342102 
	C749.184082,231.922287 749.986877,233.502472 751.326294,235.597809 
M645.983337,222.542801 
	C645.229248,231.029495 647.900940,235.911896 653.846741,236.912949 
	C659.481445,237.861618 664.269653,234.934662 665.781433,229.617554 
	C667.437683,223.792175 664.603271,216.989227 659.804565,215.272293 
	C654.008606,213.198563 649.257935,215.467255 645.983337,222.542801 
M394.690399,236.599808 
	C400.434692,233.650558 402.756226,222.328278 398.399658,214.291138 
	C397.872589,216.603149 397.356262,217.958405 397.290436,219.335205 
	C397.123901,222.816132 397.288818,226.314575 397.077179,229.791168 
	C396.878113,233.061676 394.710815,234.328613 391.646484,234.304550 
	C388.639618,234.280960 386.990753,232.691849 386.870544,229.732483 
	C386.729065,226.249603 386.856262,222.755112 386.688568,219.274261 
	C386.622986,217.912735 386.072876,216.574539 385.743439,215.225723 
	C385.058746,215.273819 384.374023,215.321915 383.689331,215.370010 
	C383.689331,219.351990 383.665405,223.334137 383.694397,227.315918 
	C383.751221,235.128769 386.167969,237.367844 394.690399,236.599808 
M496.758118,224.344543 
	C493.972321,224.344543 491.186493,224.344543 488.270996,224.344543 
	C488.270996,221.997528 488.270996,220.138229 488.270996,217.769989 
	C492.462372,217.769989 496.315430,217.769989 500.581726,217.769989 
	C498.259186,215.057785 491.850983,214.522827 485.187347,215.997574 
	C485.187347,222.752945 485.187347,229.499985 485.187347,236.200485 
	C494.863434,237.416901 498.648773,236.992218 500.772644,233.998627 
	C496.334534,233.998627 492.279114,233.998627 488.262634,233.998627 
	C488.262634,231.372849 488.262634,229.327255 488.262634,227.061874 
	C491.575989,227.061874 494.558441,227.128738 497.532867,227.004379 
	C498.114655,226.980042 498.665497,226.214417 499.230591,225.790665 
	C498.676636,225.311539 498.122681,224.832428 496.758118,224.344543 
M688.021484,233.761490 
	C681.637024,234.932800 680.068359,233.733490 679.973999,227.518005 
	C679.923584,224.199844 680.073181,220.873611 679.876526,217.566238 
	C679.826904,216.731293 678.794800,215.954758 678.214111,215.151382 
	C677.041138,220.768463 676.381592,225.991653 677.328430,230.905319 
	C677.779968,233.248474 680.979309,236.051132 683.478210,236.780029 
	C687.269836,237.885986 691.882935,236.476288 692.738220,232.209137 
	C693.785706,226.982666 693.191650,221.423401 693.206726,216.007751 
	C693.207275,215.793839 692.170593,215.577026 690.713562,215.009750 
	C690.713562,218.324615 690.967957,221.087158 690.647461,223.781326 
	C690.269592,226.958374 689.394226,230.076279 688.021484,233.761490 
M884.154297,236.942398 
	C888.515198,236.116333 890.979858,233.613586 891.157715,228.617599 
	C887.031067,232.028809 883.015869,238.433945 877.875305,231.628143 
	C876.039917,229.198120 876.094849,223.310455 877.818665,220.627777 
	C881.910095,214.260178 886.619629,218.862579 891.284241,222.745163 
	C890.911499,217.462021 888.455750,215.508224 884.696106,214.968918 
	C878.463562,214.074875 873.955688,217.545837 873.106384,223.715240 
	C872.045166,231.423859 875.722107,236.198151 884.154297,236.942398 
M587.290283,216.368515 
	C586.535339,234.183136 586.640564,235.096054 589.912903,236.412094 
	C590.076416,233.248398 590.234802,230.184311 590.392944,227.123688 
	C594.073975,227.123688 597.343750,227.123688 600.531982,227.123688 
	C601.018005,230.487686 601.470337,233.618057 601.922668,236.748444 
	C602.488159,236.639221 603.053711,236.529984 603.619263,236.420746 
	C603.619263,229.463043 603.619263,222.505341 603.619263,215.547623 
	C603.005432,215.448730 602.391541,215.349838 601.777710,215.250946 
	C601.378357,218.074280 600.979004,220.897614 600.600647,223.572357 
	C597.021179,223.572357 593.633057,223.572357 590.132019,223.572357 
	C590.132019,221.195267 590.303772,219.174484 590.026917,217.217163 
	C589.944336,216.632996 588.605530,216.226501 587.290283,216.368515 
M456.712860,215.671707 
	C454.824951,223.874741 455.806702,235.311905 458.817383,236.406754 
	C458.966187,233.250687 459.110382,230.193146 459.250336,227.224976 
	C463.005005,227.224976 466.389648,227.224976 469.746826,227.224976 
	C469.936920,230.554779 470.107788,233.547333 470.306702,237.031677 
	C474.050079,233.945190 473.829407,217.377441 470.108795,215.212753 
	C470.108795,218.236099 470.108795,220.923782 470.108795,223.698212 
	C466.098480,223.698212 462.700745,223.698212 459.874451,223.698212 
	C459.020782,220.701035 458.277161,218.090118 456.712860,215.671707 
M512.500488,228.901810 
	C511.621582,231.289169 510.742706,233.676544 509.479004,237.109207 
	C514.688477,236.125015 513.296814,229.744125 519.156494,229.732056 
	C524.960144,229.720123 523.118958,236.692749 528.476074,236.515808 
	C525.979492,229.640701 523.734680,223.317139 521.336914,217.052155 
	C521.065613,216.343185 519.800964,215.418594 519.230164,215.556870 
	C518.327209,215.775574 517.264954,216.656769 516.895081,217.524124 
	C515.403076,221.023148 514.150513,224.624252 512.500488,228.901810 
M833.156555,224.442551 
	C834.425659,227.865067 835.495850,231.386383 837.110107,234.637558 
	C837.492493,235.407776 840.812195,235.721863 840.907776,235.486160 
	C843.533447,229.012177 845.916382,222.439697 848.339722,215.883636 
	C847.669922,215.601288 847.000061,215.318954 846.330261,215.036621 
	C842.265991,219.744019 842.424988,226.547958 839.298279,231.967499 
	C835.858276,226.791107 836.386902,219.587509 831.807861,215.168777 
	C831.286377,215.415985 830.764893,215.663193 830.243347,215.910400 
	C831.142700,218.505188 832.042053,221.099976 833.156555,224.442551 
M570.214600,225.450012 
	C570.214600,223.142120 570.214600,220.834229 570.214600,218.376785 
	C572.711914,218.138474 575.023865,217.917847 577.840393,217.649063 
	C574.298767,214.221008 561.900513,214.596085 560.196228,217.775620 
	C562.504456,217.983627 564.728516,218.184052 566.894592,218.379257 
	C567.803467,224.632324 566.183899,230.877777 567.853394,236.680908 
	C568.640442,236.625702 569.427429,236.570496 570.214478,236.515274 
	C570.214478,233.149963 570.214478,229.784653 570.214600,225.450012 
M339.247009,216.803711 
	C337.658722,219.410950 336.070435,222.018188 334.480194,224.628632 
	C330.623383,222.072739 330.851685,216.101578 324.458191,215.090561 
	C327.055695,219.220428 329.506317,222.210098 330.925964,225.627991 
	C332.355591,229.069763 332.760498,232.937164 333.614380,236.618088 
	C335.474365,233.199371 335.691162,229.417130 337.058136,226.110321 
	C338.533020,222.542450 341.083954,219.419388 343.908875,214.917572 
	C341.626343,215.643341 340.661255,215.950211 339.247009,216.803711 
M541.824829,236.680206 
	C545.243347,236.492767 548.661865,236.305328 552.080383,236.117889 
	C552.028564,235.420883 551.976746,234.723862 551.924927,234.026855 
	C548.436096,234.026855 544.947327,234.026855 540.823486,234.026855 
	C540.823486,227.363998 540.823486,221.373337 540.823486,214.422501 
	C539.390015,215.672867 538.356934,216.150070 538.347656,216.646484 
	C538.232544,222.788803 538.197998,228.935944 538.377930,235.074936 
	C538.394287,235.632919 540.035156,236.143295 541.824829,236.680206 
M861.257080,236.330521 
	C863.159363,228.369278 862.186218,216.736496 859.044312,215.483521 
	C859.044312,222.255356 859.022034,228.845367 859.103455,235.434067 
	C859.107971,235.802765 859.968018,236.160904 861.257080,236.330521 
z"/>
<path fill="#6070FF" opacity="1.000000" stroke="none" 
	d="
M222.709930,165.700073 
	C223.886398,165.003052 224.746811,164.494843 225.602005,163.978012 
	C234.465363,158.621674 238.897522,159.738098 245.128662,169.122849 
	C249.570679,167.371689 254.020233,164.406937 259.075897,167.817383 
	C263.594360,170.865463 265.460419,174.850769 264.077820,180.450897 
	C264.754944,180.809906 265.462616,181.172012 266.158234,181.555939 
	C274.686676,186.262985 275.463287,195.765808 267.496063,201.272430 
	C244.474136,217.184235 221.589050,233.317017 198.139145,248.577682 
	C184.865631,257.215759 170.501999,264.698914 153.969330,263.698334 
	C145.112045,263.162292 136.386017,260.402832 127.612572,258.589539 
	C126.153755,258.288025 124.737595,257.742096 123.332237,257.225983 
	C111.009964,252.700714 99.763283,252.792511 88.922462,262.027954 
	C81.380936,268.452667 72.294540,273.058044 63.932861,278.528992 
	C60.668526,280.664825 57.321087,281.470795 53.572983,279.924957 
	C46.526947,277.019012 39.001995,274.940979 32.504936,271.112335 
	C21.738518,264.767761 17.189014,253.390594 21.525106,241.828796 
	C27.234196,226.605972 33.342579,211.314819 41.388474,197.260559 
	C47.067131,187.341278 58.665253,183.458618 69.694031,181.054703 
	C85.226570,177.669128 100.173996,181.127792 114.562759,186.933792 
	C124.430397,190.915482 133.943634,195.768890 143.755157,199.900452 
	C146.503754,201.057877 149.745987,201.464294 152.765457,201.479355 
	C162.417023,201.527466 172.092392,200.800766 181.711166,201.295303 
	C185.150009,201.472122 189.242828,203.525162 191.652710,206.045578 
	C196.497879,211.112946 194.291061,216.085129 187.348236,217.296906 
	C178.675552,218.810623 169.884369,219.879181 161.387375,222.078751 
	C156.197174,223.422318 151.473083,226.550720 146.523209,228.841980 
	C137.466049,233.034470 128.337296,236.290695 118.357567,231.643188 
	C115.704559,230.407700 112.849525,229.606003 109.449310,228.374008 
	C111.921417,233.132278 120.497559,238.076843 125.836090,237.948425 
	C135.198822,237.723221 143.799042,236.013947 152.285385,230.763077 
	C159.333496,226.402130 168.451706,225.306778 176.728363,223.040466 
	C181.995941,221.598099 187.616196,221.238358 192.693405,219.355362 
	C199.862015,216.696701 201.172882,211.045990 197.153229,204.462692 
	C193.575928,198.603897 188.315109,196.229614 181.660995,196.265686 
	C173.178696,196.311676 164.695984,196.276855 155.757019,196.276855 
	C157.618332,195.162018 159.429489,194.025177 161.288177,192.972229 
	C175.923935,184.681061 190.594849,176.451569 205.193283,168.095322 
	C209.063904,165.879745 212.775482,165.273026 217.088089,166.914459 
	C218.518097,167.458725 220.604904,166.277313 222.709930,165.700073 
z"/>
<path fill="#6070FF" opacity="1.000000" stroke="none" 
	d="
M205.601257,37.281715 
	C223.301086,47.448601 230.231735,63.154110 228.665985,82.326134 
	C228.159637,88.526405 224.517593,94.972511 220.866745,100.321091 
	C209.349396,117.194275 193.226471,129.495438 177.334183,141.897552 
	C170.908646,146.911942 164.022659,151.332596 157.439316,156.150650 
	C155.324005,157.698746 153.682404,158.151657 151.274719,156.462891 
	C131.750656,142.768738 112.791214,128.422180 96.149689,111.200211 
	C94.550232,109.544968 91.714378,108.444939 89.367615,108.277641 
	C83.566666,107.864098 77.715576,108.201439 71.886330,108.118202 
	C68.705269,108.072784 64.302277,109.129578 64.233963,104.180649 
	C64.158905,98.742554 68.874474,100.069595 72.125168,100.039406 
	C83.618454,99.932640 95.121513,99.742264 106.604057,100.109352 
	C112.063263,100.283867 116.037254,99.152145 117.941650,93.615517 
	C118.280090,92.631554 119.153801,91.831703 120.373352,90.109329 
	C123.706970,101.790771 126.790749,112.587112 129.866684,123.385689 
	C130.322479,124.985825 130.416702,126.800453 131.263489,128.148087 
	C132.214874,129.662201 133.794998,131.705963 135.167358,131.757187 
	C136.409439,131.803558 138.436768,129.696228 138.919144,128.161743 
	C142.161285,117.848038 145.077560,107.432014 148.111435,97.052650 
	C150.489105,88.918274 152.884064,80.788963 155.637360,71.410660 
	C156.622894,74.011574 157.282104,75.568016 157.807877,77.168289 
	C161.443802,88.235115 164.964432,99.341202 168.755737,110.354240 
	C169.382568,112.175064 170.976624,114.660904 172.448334,114.908302 
	C173.880173,115.148994 176.517349,113.282906 177.266205,111.699242 
	C182.031265,101.622223 189.709396,97.968483 200.524277,99.930305 
	C203.412292,100.454193 206.703262,99.952621 206.798355,96.104729 
	C206.893814,92.241814 203.752655,91.921829 200.726791,91.999367 
	C199.894424,92.020699 199.061020,92.000320 198.228104,92.002510 
	C193.397537,92.015213 188.038300,90.729462 183.889084,92.417542 
	C179.950012,94.020103 177.277420,98.735535 173.938919,102.195107 
	C169.397995,88.558075 164.776688,74.675598 160.151154,60.794510 
	C159.677887,59.374264 159.350235,57.872055 158.658585,56.564713 
	C157.026535,53.479809 154.766144,53.671722 152.724091,56.022873 
	C151.801422,57.085209 151.393784,58.675919 150.988602,60.094364 
	C145.873993,77.999115 140.802521,95.916176 135.501434,114.600601 
	C132.159088,103.236153 129.137558,92.509651 125.768387,81.893471 
	C125.103943,79.799797 123.100128,78.131187 121.713997,76.266556 
	C119.886269,77.774261 117.077110,78.932976 116.395988,80.848419 
	C112.935181,90.580727 106.318474,93.845673 96.478241,92.072311 
	C93.896744,91.607086 91.113762,91.686668 88.504944,92.070663 
	C83.706924,92.776917 81.253777,90.709145 80.637924,86.172371 
	C78.452171,70.070984 81.863655,55.376217 93.969864,44.156284 
	C106.935432,32.139908 122.327911,27.845337 139.057480,35.699905 
	C144.840424,38.415012 149.489365,43.545418 154.756042,47.650295 
	C172.836227,30.290653 185.138214,27.620867 205.601257,37.281715 
z"/>
<path fill="#0C1F74" opacity="1.000000" stroke="none" 
	d="
M392.098297,115.064606 
	C390.902039,124.219360 390.909302,133.294342 388.180878,141.454651 
	C384.298187,153.067215 374.695038,159.075180 362.507568,159.582993 
	C350.236206,160.094299 337.926941,159.695541 325.239563,159.695541 
	C325.239563,131.884140 325.239563,104.320114 325.239563,75.477097 
	C334.016663,75.477097 342.944885,75.772736 351.847717,75.422630 
	C380.549561,74.293907 391.289551,89.112991 392.098297,115.064606 
M355.262451,90.835907 
	C351.659729,90.835907 348.056976,90.835907 344.423706,90.835907 
	C344.423706,109.119484 344.423706,127.014626 344.423706,145.001816 
	C347.748169,145.001816 350.739014,145.006393 353.729889,145.000977 
	C363.411896,144.983475 368.425415,141.522949 370.639008,132.230118 
	C373.021820,122.226913 373.166779,112.080101 370.140869,102.106255 
	C367.809662,94.422165 364.206573,91.613297 355.262451,90.835907 
z"/>
<path fill="#0E2175" opacity="1.000000" stroke="none" 
	d="
M875.852295,160.021423 
	C858.504700,160.433121 858.449646,160.446075 854.554932,143.899704 
	C851.132996,129.362045 847.852844,114.791023 844.380920,99.672211 
	C847.143738,99.003143 849.463074,98.195221 851.845093,97.909431 
	C859.939697,96.938286 862.490723,98.675110 864.089233,106.569778 
	C866.656738,119.249886 869.007568,131.973862 871.982422,144.768112 
	C873.645020,133.458023 875.448608,122.166412 876.932800,110.832970 
	C878.600037,98.100517 878.475037,98.070999 891.293823,98.575287 
	C894.282043,98.692856 897.265442,98.932350 900.887085,99.154816 
	C903.220886,114.310608 905.557678,129.485947 907.894531,144.661270 
	C908.072205,144.634201 908.249878,144.607132 908.427551,144.580063 
	C911.235840,130.517014 914.182007,116.479050 916.748474,102.372002 
	C917.335876,99.143318 918.830322,98.350952 921.650085,98.096733 
	C934.487793,96.939354 935.965271,98.475960 933.066345,110.514053 
	C929.446960,125.544144 925.639038,140.530640 922.219788,155.605652 
	C921.469666,158.912766 920.078125,160.079269 916.906250,159.984863 
	C912.912903,159.866028 908.905945,160.127060 904.917358,159.946899 
	C898.566895,159.660065 896.148132,157.593826 895.193970,151.444214 
	C893.662964,141.577942 892.356140,131.676987 890.932251,121.793900 
	C890.677551,120.026070 890.315063,118.273766 889.387939,116.555038 
	C887.238953,130.733917 885.090027,144.912811 882.876465,159.518021 
	C880.553955,159.692490 878.441589,159.851166 875.852295,160.021423 
z"/>
<path fill="#0D2075" opacity="1.000000" stroke="none" 
	d="
M713.092041,140.045074 
	C714.823730,137.223022 716.569580,138.407272 718.348572,139.390518 
	C725.140015,143.143997 732.271545,145.660782 740.176147,145.471207 
	C744.485962,145.367813 748.112854,144.342590 749.401733,139.565170 
	C750.683838,134.812714 748.179993,131.780640 744.434509,129.812012 
	C740.184387,127.578178 735.622009,125.945717 731.243469,123.946510 
	C728.376831,122.637642 725.490173,121.317238 722.794861,119.698402 
	C712.731018,113.654037 709.154968,106.551170 710.733154,96.154335 
	C712.202209,86.476822 719.700745,78.442726 729.803711,76.007278 
	C743.201904,72.777473 755.844238,75.461205 769.312683,81.738022 
	C767.259644,86.555672 765.217041,91.348717 763.557556,95.242691 
	C755.072144,93.282654 748.071045,91.407524 740.958679,90.174583 
	C738.729065,89.788086 735.911316,90.622185 733.866028,91.783684 
	C729.201721,94.432449 729.022583,99.991875 733.659729,102.663490 
	C738.380005,105.383049 743.586609,107.254555 748.562866,109.535194 
	C751.578369,110.917206 754.694458,112.146309 757.534546,113.832771 
	C767.897095,119.986153 771.815063,128.443848 770.046448,140.306870 
	C768.673645,149.515076 760.781189,157.613556 750.390015,159.897568 
	C736.707336,162.905106 723.710327,160.845093 711.268616,154.313599 
	C707.965027,152.579315 707.255676,150.730072 708.788086,147.695099 
	C710.052734,145.190536 711.486694,142.771469 713.092041,140.045074 
z"/>
<path fill="#0D2075" opacity="1.000000" stroke="none" 
	d="
M997.823853,154.624420 
	C993.310364,162.236420 988.638123,162.104996 981.514709,155.344116 
	C975.067383,157.399567 969.321655,160.206924 963.328369,160.913055 
	C954.372437,161.968246 947.368713,156.703903 944.967957,148.835327 
	C942.222839,139.838379 945.023560,130.456329 952.737000,126.133316 
	C956.777893,123.868515 961.677307,122.893555 966.317810,122.021660 
	C969.658386,121.393997 973.211853,121.899399 976.677307,121.899399 
	C976.306946,113.679398 973.167053,110.978004 965.626404,112.275436 
	C962.197815,112.865349 958.719543,113.527451 955.472961,114.724213 
	C951.248230,116.281502 949.235901,114.513741 948.157532,110.782417 
	C947.426636,108.253204 946.886597,105.668823 946.133484,102.586464 
	C957.173767,98.961906 968.052795,96.101608 979.443909,97.913643 
	C989.739014,99.551361 995.439148,106.377625 995.835815,116.851112 
	C996.125366,124.496635 995.709900,132.170807 996.064697,139.811020 
	C996.219421,143.141571 997.647766,146.395966 998.232910,149.731384 
	C998.488342,151.187729 998.078918,152.760727 997.823853,154.624420 
M975.244324,133.961014 
	C972.750732,134.002289 970.190796,133.697723 967.778259,134.161102 
	C963.522339,134.978516 962.501770,138.300308 962.708984,142.114746 
	C962.920776,146.011124 965.682129,147.278503 968.927612,147.030075 
	C975.557739,146.522583 978.639648,144.472321 975.244324,133.961014 
z"/>
<path fill="#0D2075" opacity="1.000000" stroke="none" 
	d="
M435.808044,96.960907 
	C448.911926,98.046722 457.211578,104.963814 460.316956,117.233513 
	C462.614960,126.313110 462.636902,135.382263 459.232605,144.225662 
	C454.463257,156.615158 445.275757,161.859268 430.206390,160.996292 
	C419.258667,160.369370 410.114227,152.672897 407.171387,141.345535 
	C405.040222,133.142334 404.998413,124.804863 407.270294,116.665222 
	C410.899902,103.661110 421.543732,95.935844 435.808044,96.960907 
M425.075409,124.772591 
	C425.473053,130.229324 425.539093,135.737885 426.380859,141.125244 
	C426.977448,144.943802 429.774414,146.993271 433.891327,147.030975 
	C437.943909,147.068054 440.587799,144.791397 440.793213,141.251633 
	C441.260406,133.201721 441.404297,125.065552 440.666870,117.057709 
	C440.466736,114.884148 436.788330,111.655464 434.467896,111.436378 
	C432.110474,111.213806 428.778412,113.599045 427.133881,115.788994 
	C425.599426,117.832314 425.721222,121.119370 425.075409,124.772591 
z"/>
<path fill="#0D2075" opacity="1.000000" stroke="none" 
	d="
M626.153381,98.550827 
	C638.453125,104.381363 644.771606,115.761993 643.344971,130.772491 
	C642.776245,136.756088 641.523499,143.087830 638.833008,148.370163 
	C633.322998,159.187943 623.141968,161.937164 611.768005,160.954544 
	C601.630981,160.078796 594.283081,154.911072 590.447815,145.451553 
	C585.795715,133.977417 586.053101,122.379059 591.178040,111.112801 
	C595.733459,101.098595 607.947815,93.362938 626.153381,98.550827 
M606.855713,126.607224 
	C607.228516,131.394135 607.329346,136.222977 608.059021,140.954865 
	C608.656860,144.832138 611.301025,146.877823 615.405334,147.029449 
	C619.771484,147.190735 622.360779,144.590454 622.594666,140.941711 
	C623.099915,133.059616 623.042297,125.105667 622.603516,117.215118 
	C622.407654,113.692711 619.819763,111.271118 615.895386,111.028725 
	C611.945923,110.784790 609.485352,113.102936 608.358704,116.376442 
	C607.354065,119.295189 607.327087,122.550484 606.855713,126.607224 
z"/>
<path fill="#0C1F74" opacity="1.000000" stroke="none" 
	d="
M806.232544,145.021469 
	C812.826721,148.319702 819.071228,146.703659 824.939026,144.449829 
	C829.108032,142.848465 830.527344,144.927444 831.624756,147.836151 
	C832.761047,150.847977 835.197632,154.036804 830.233459,156.572968 
	C819.723999,161.942261 808.839539,162.831009 797.922241,159.048813 
	C794.143311,157.739594 790.490540,154.431488 788.084351,151.095673 
	C780.332886,140.349487 780.708313,118.332848 788.227966,107.400826 
	C794.304688,98.566452 805.974243,94.675064 817.042419,97.792198 
	C827.684998,100.789467 834.483643,109.146469 834.902466,120.328125 
	C835.080383,125.077408 834.506714,129.854843 834.253540,135.052612 
	C823.126343,135.052612 812.700134,135.052612 800.555969,135.052612 
	C802.724182,139.027939 804.306519,141.929199 806.232544,145.021469 
M817.538025,118.150932 
	C815.560425,111.817268 812.991943,109.609810 808.491577,110.376068 
	C803.898926,111.158020 802.036194,114.366829 801.979980,122.002182 
	C806.595581,122.002182 811.220398,122.122917 815.824280,121.867096 
	C816.486145,121.830322 817.047058,119.978699 817.538025,118.150932 
z"/>
<path fill="#0E2075" opacity="1.000000" stroke="none" 
	d="
M489.371216,158.882904 
	C476.281616,151.818512 474.051544,139.786194 474.557617,127.082100 
	C474.787933,121.299477 476.357758,115.080147 479.055664,109.976372 
	C487.673126,93.674110 512.205872,92.051414 522.180115,106.725029 
	C523.282410,108.346626 524.667664,110.287575 524.639771,112.060257 
	C524.579773,115.878220 525.005981,121.326637 522.809387,123.092194 
	C519.821350,125.493874 514.583801,125.208992 510.268402,125.710091 
	C509.708191,125.775139 508.553802,123.742439 508.270996,122.541031 
	C507.704651,120.135445 508.163666,117.294739 507.046478,115.269669 
	C506.027802,113.423119 503.581024,111.523804 501.585052,111.309265 
	C499.824615,111.120026 496.694427,112.806129 496.104584,114.386520 
	C492.686920,123.543655 492.548492,132.967468 496.145782,142.132858 
	C497.619537,145.887772 501.453339,146.917313 504.999634,146.220779 
	C509.317505,145.372665 513.448608,143.573654 518.453552,141.924652 
	C517.920898,141.704803 518.518555,141.770020 518.822144,142.103180 
	C527.286499,151.392349 526.279968,152.781616 516.801819,157.553375 
	C508.085968,161.941376 498.966980,162.472916 489.371216,158.882904 
z"/>
<path fill="#0E2176" opacity="1.000000" stroke="none" 
	d="
M543.319092,125.005951 
	C543.319092,120.534203 543.319092,116.561562 543.319092,112.162750 
	C540.144409,112.162750 537.219055,112.162750 533.684143,112.162750 
	C533.684143,107.432777 533.684143,103.131958 533.684143,98.659500 
	C537.131958,98.659500 539.921814,98.659500 542.840881,98.659500 
	C544.354065,92.980438 541.134216,85.560959 547.350220,82.107117 
	C551.227600,79.952744 556.501831,80.312294 562.035400,79.397118 
	C562.035400,83.502045 562.035461,86.425873 562.035461,89.349709 
	C562.035461,92.321281 562.035400,95.292854 562.035400,98.573288 
	C566.938660,98.573288 571.511841,98.573288 576.629761,98.573288 
	C576.629761,103.046463 576.629761,107.217522 576.629761,111.719818 
	C571.882751,111.719818 567.289734,111.719818 562.169678,111.719818 
	C562.169678,121.776993 561.975708,131.532425 562.382751,141.262695 
	C562.442566,142.691360 565.157837,144.496567 567.002136,145.239624 
	C569.309692,146.169312 573.433533,145.379913 574.197021,146.758957 
	C575.683289,149.443436 575.406921,153.117493 575.783630,156.390549 
	C575.855469,157.014908 575.572327,157.680099 575.237061,159.495972 
	C568.332031,159.610382 561.254578,160.208221 554.259399,159.691803 
	C548.645386,159.277374 544.548584,154.561630 544.042358,148.420868 
	C543.415283,140.814087 543.526672,133.146423 543.319092,125.005951 
z"/>
<path fill="#0E2175" opacity="1.000000" stroke="none" 
	d="
M660.977539,98.542305 
	C668.876099,97.670609 673.542725,102.028801 676.586792,107.194870 
	C680.543945,104.191338 683.997986,100.398537 688.283508,98.684669 
	C691.758911,97.294746 696.233276,98.402550 700.987976,98.402550 
	C700.083435,102.949638 699.492188,106.517975 698.645386,110.024635 
	C697.636963,114.201050 696.252930,116.970222 690.534363,115.588486 
	C684.976135,114.245476 679.188904,119.463356 679.564819,125.368057 
	C680.208069,135.473587 679.642090,145.651306 679.804199,155.795197 
	C679.851990,158.783981 678.934631,160.065933 675.902100,159.999344 
	C671.100403,159.893906 666.294678,159.971268 660.920715,159.971268 
	C660.824097,157.946686 660.686157,156.364288 660.683289,154.781647 
	C660.663879,144.136185 661.068848,133.469360 660.496826,122.854698 
	C660.232849,117.957039 657.320068,113.202347 657.054626,108.304436 
	C656.887451,105.219643 659.399780,101.989647 660.977539,98.542305 
z"/>
<path fill="#2E3E88" opacity="1.000000" stroke="none" 
	d="
M722.340393,221.208557 
	C719.390991,226.447922 723.056641,231.203491 722.254089,237.232910 
	C720.993713,236.029495 719.573120,235.322647 719.298035,234.305817 
	C717.401001,227.295181 717.477905,227.274384 709.193298,227.956802 
	C708.863525,230.846695 708.526855,233.797592 708.190186,236.748489 
	C707.583130,236.699203 706.976074,236.649918 706.369019,236.600632 
	C706.369019,229.717773 706.369019,222.834900 706.369019,215.893158 
	C716.371033,213.961838 720.590210,215.236252 722.340393,221.208557 
M716.996094,218.038940 
	C714.388855,218.038940 711.781616,218.038940 708.944763,218.038940 
	C708.878601,219.390808 708.786682,220.352844 708.796265,221.313873 
	C708.807251,222.420258 708.907837,223.525772 708.984558,224.900742 
	C711.137207,224.900742 712.947815,225.023972 714.736145,224.876602 
	C719.279236,224.502258 720.081055,222.745087 716.996094,218.038940 
z"/>
<path fill="#32428A" opacity="1.000000" stroke="none" 
	d="
M814.538818,227.864670 
	C811.795715,227.756317 809.498718,227.756317 806.846313,227.756317 
	C806.529907,230.899033 806.238037,233.797668 805.946228,236.696320 
	C805.253357,236.682220 804.560486,236.668137 803.867676,236.654053 
	C802.776184,229.799728 803.569031,222.835556 803.475037,215.568909 
	C807.676880,215.568909 811.454529,215.333710 815.187744,215.640152 
	C818.421631,215.905640 821.141724,218.389526 819.913269,221.286346 
	C817.674072,226.566452 821.024658,231.280151 819.149414,237.016312 
	C818.422852,235.896622 817.536316,234.847122 817.006958,233.640839 
	C816.202820,231.808701 815.646484,229.867767 814.538818,227.864670 
M815.728210,218.349319 
	C812.699890,218.210052 809.671509,218.070786 806.619934,217.930435 
	C806.619934,220.617294 806.619934,222.551117 806.619934,224.897888 
	C808.771606,224.897888 810.732727,225.004761 812.678101,224.875336 
	C816.568237,224.616562 818.038879,222.739029 815.728210,218.349319 
z"/>
<path fill="#304089" opacity="1.000000" stroke="none" 
	d="
M429.014984,233.325912 
	C428.816620,234.680573 428.605255,235.641617 428.393890,236.602661 
	C427.601166,235.974594 426.393982,235.498688 426.096619,234.688736 
	C425.333832,232.611374 425.617432,229.184250 424.312195,228.486542 
	C422.072693,227.289459 418.941772,227.760193 415.759583,227.495285 
	C415.480011,230.824020 415.242676,233.649857 415.005310,236.475708 
	C414.359314,236.505814 413.713318,236.535934 413.067291,236.566055 
	C411.362671,229.942596 412.778595,223.012939 412.243164,215.817871 
	C416.745605,215.817871 421.052643,215.299652 425.112823,216.074707 
	C426.721466,216.381790 429.311523,220.318207 428.825104,221.301819 
	C426.785461,225.426361 429.036896,229.099442 429.014984,233.325912 
M421.279663,217.909576 
	C419.368866,217.909576 417.458099,217.909576 415.526062,217.909576 
	C415.526062,220.608170 415.526062,222.540665 415.526062,224.867798 
	C417.855652,224.867798 420.108612,225.319366 422.038788,224.724152 
	C423.567535,224.252731 424.700378,222.497406 426.009033,221.312180 
	C424.728394,220.179016 423.447723,219.045853 421.279663,217.909576 
z"/>
<path fill="#2E3E87" opacity="1.000000" stroke="none" 
	d="
M911.872437,218.071304 
	C909.774841,218.071304 908.132812,218.071304 906.106689,218.071304 
	C906.015259,220.071365 905.935730,221.809891 905.840820,223.886002 
	C909.807129,224.244537 913.571350,224.584808 917.335510,224.925079 
	C917.287598,225.546402 917.239624,226.167709 917.191650,226.789032 
	C913.560608,226.789032 909.929565,226.789032 906.091187,226.789032 
	C906.091187,229.418869 906.091187,231.361267 906.091187,233.874283 
	C910.071655,233.874283 914.135864,233.874283 918.493347,233.874283 
	C916.799988,237.010071 914.772705,237.282303 903.167908,236.384735 
	C903.167908,229.545044 903.167908,222.670349 903.167908,215.289062 
	C908.251648,215.999344 913.471252,213.965820 918.182129,216.486496 
	C918.150146,217.014771 918.118225,217.543030 918.086243,218.071304 
	C916.166870,218.071304 914.247437,218.071304 911.872437,218.071304 
z"/>
<path fill="#243582" opacity="1.000000" stroke="none" 
	d="
M365.429138,215.024933 
	C371.396881,217.936218 373.912231,222.758575 372.791107,228.398132 
	C371.764404,233.562637 368.238373,236.767456 363.304932,237.020065 
	C356.895020,237.348312 352.598572,233.159439 352.278931,226.270233 
	C351.979675,219.820831 355.971619,215.132797 362.038910,214.854874 
	C363.028442,214.809540 364.025726,214.934280 365.429138,215.024933 
M369.759491,224.072357 
	C367.604095,218.479599 364.596252,216.569214 360.228516,218.018906 
	C356.634094,219.211929 354.673553,223.717743 355.716156,228.389526 
	C356.718842,232.882385 359.641418,235.092697 363.915894,234.275833 
	C369.129730,233.279434 369.962219,229.320557 369.759491,224.072357 
z"/>
<path fill="#2A3B85" opacity="1.000000" stroke="none" 
	d="
M776.486755,232.614655 
	C776.486633,226.726089 776.486633,221.293228 776.486633,216.117767 
	C782.051819,216.117767 787.030396,216.117767 792.008972,216.117767 
	C792.010010,216.654465 792.011047,217.191177 792.012146,217.727875 
	C787.935974,217.923325 783.859802,218.118759 779.771912,218.314774 
	C779.771912,220.317947 779.771912,222.069534 779.771912,224.113739 
	C783.709839,224.316772 787.392151,224.506638 791.074463,224.696487 
	C791.062012,225.365005 791.049500,226.033508 791.037048,226.702026 
	C787.290894,226.911743 783.544678,227.121475 779.650757,227.339462 
	C779.650757,229.502136 779.650757,231.462524 779.650757,233.939880 
	C783.806213,233.939880 787.873474,233.939880 791.940674,233.939880 
	C792.078369,234.313461 792.216125,234.687027 792.353821,235.060608 
	C791.611450,235.583176 790.887817,236.522995 790.123535,236.557358 
	C786.478882,236.721130 782.793579,236.896118 779.190430,236.480179 
	C778.171631,236.362579 777.381775,234.261658 776.486755,232.614655 
z"/>
<path fill="#273883" opacity="1.000000" stroke="none" 
	d="
M751.057983,235.340240 
	C749.986877,233.502472 749.184082,231.922287 748.381226,230.342102 
	C749.259338,229.617371 750.137390,228.892624 751.015442,228.167892 
	C751.250427,229.294754 751.264771,230.530930 751.759216,231.529236 
	C753.726257,235.500229 757.205811,234.628815 760.371521,233.718750 
	C761.243835,233.467987 762.254700,231.675735 762.167969,230.680923 
	C762.080933,229.682144 760.879456,228.376160 759.855530,227.947723 
	C757.738464,227.061890 755.359314,226.823959 753.187988,226.041824 
	C748.758850,224.446442 747.454712,219.196609 751.258728,216.759399 
	C753.593445,215.263596 757.263123,214.928314 760.087708,215.436584 
	C762.054504,215.790497 763.604431,218.461380 765.340637,220.097229 
	C764.869629,220.637177 764.398621,221.177124 763.927612,221.717087 
	C763.126038,221.106522 762.400635,220.330414 761.507263,219.919373 
	C759.554932,219.021072 757.547424,217.844345 755.502014,217.711517 
	C754.447937,217.643051 753.264404,219.566788 752.139343,220.590317 
	C753.170532,221.677933 754.013977,223.175812 755.278076,223.754211 
	C757.043640,224.562012 759.486328,224.172318 760.975159,225.229935 
	C762.767639,226.503250 765.055115,228.826889 764.952942,230.568222 
	C764.831238,232.643173 762.714966,235.843552 760.900513,236.294662 
	C757.949219,237.028397 754.541443,235.925537 751.057983,235.340240 
z"/>
<path fill="#203280" opacity="1.000000" stroke="none" 
	d="
M646.065125,222.168671 
	C649.257935,215.467255 654.008606,213.198563 659.804565,215.272293 
	C664.603271,216.989227 667.437683,223.792175 665.781433,229.617554 
	C664.269653,234.934662 659.481445,237.861618 653.846741,236.912949 
	C647.900940,235.911896 645.229248,231.029495 646.065125,222.168671 
M662.538574,222.381912 
	C659.919312,218.033371 656.441833,216.562912 652.804993,218.266083 
	C649.375854,219.871979 647.703247,225.119049 649.180908,229.634933 
	C650.387024,233.320755 653.962769,235.181229 657.907654,234.175522 
	C661.911621,233.154755 663.378601,229.865326 662.538574,222.381912 
z"/>
<path fill="#2E3E87" opacity="1.000000" stroke="none" 
	d="
M394.307800,236.723801 
	C386.167969,237.367844 383.751221,235.128769 383.694397,227.315918 
	C383.665405,223.334137 383.689331,219.351990 383.689331,215.370010 
	C384.374023,215.321915 385.058746,215.273819 385.743439,215.225723 
	C386.072876,216.574539 386.622986,217.912735 386.688568,219.274261 
	C386.856262,222.755112 386.729065,226.249603 386.870544,229.732483 
	C386.990753,232.691849 388.639618,234.280960 391.646484,234.304550 
	C394.710815,234.328613 396.878113,233.061676 397.077179,229.791168 
	C397.288818,226.314575 397.123901,222.816132 397.290436,219.335205 
	C397.356262,217.958405 397.872589,216.603149 398.399658,214.291138 
	C402.756226,222.328278 400.434692,233.650558 394.307800,236.723801 
z"/>
<path fill="#2C3D87" opacity="1.000000" stroke="none" 
	d="
M497.163391,224.348923 
	C498.122681,224.832428 498.676636,225.311539 499.230591,225.790680 
	C498.665497,226.214417 498.114655,226.980042 497.532867,227.004379 
	C494.558441,227.128738 491.575989,227.061874 488.262634,227.061874 
	C488.262634,229.327255 488.262634,231.372849 488.262634,233.998627 
	C492.279114,233.998627 496.334534,233.998627 500.772644,233.998627 
	C498.648773,236.992218 494.863434,237.416901 485.187347,236.200485 
	C485.187347,229.499985 485.187347,222.752945 485.187347,215.997574 
	C491.850983,214.522827 498.259186,215.057785 500.581726,217.769989 
	C496.315430,217.769989 492.462372,217.769989 488.270996,217.769989 
	C488.270996,220.138229 488.270996,221.997528 488.270996,224.344543 
	C491.186493,224.344543 493.972321,224.344543 497.163391,224.348923 
z"/>
<path fill="#253683" opacity="1.000000" stroke="none" 
	d="
M688.378052,233.490662 
	C689.394226,230.076279 690.269592,226.958374 690.647461,223.781326 
	C690.967957,221.087158 690.713562,218.324615 690.713562,215.009750 
	C692.170593,215.577026 693.207275,215.793839 693.206726,216.007751 
	C693.191650,221.423401 693.785706,226.982666 692.738220,232.209137 
	C691.882935,236.476288 687.269836,237.885986 683.478210,236.780029 
	C680.979309,236.051132 677.779968,233.248474 677.328430,230.905319 
	C676.381592,225.991653 677.041138,220.768463 678.214111,215.151382 
	C678.794800,215.954758 679.826904,216.731293 679.876526,217.566238 
	C680.073181,220.873611 679.923584,224.199844 679.973999,227.518005 
	C680.068359,233.733490 681.637024,234.932800 688.378052,233.490662 
z"/>
<path fill="#223381" opacity="1.000000" stroke="none" 
	d="
M883.754150,236.981735 
	C875.722107,236.198151 872.045166,231.423859 873.106384,223.715240 
	C873.955688,217.545837 878.463562,214.074875 884.696106,214.968918 
	C888.455750,215.508224 890.911499,217.462021 891.284241,222.745163 
	C886.619629,218.862579 881.910095,214.260178 877.818665,220.627777 
	C876.094849,223.310455 876.039917,229.198120 877.875305,231.628143 
	C883.015869,238.433945 887.031067,232.028809 891.157715,228.617599 
	C890.979858,233.613586 888.515198,236.116333 883.754150,236.981735 
z"/>
<path fill="#223380" opacity="1.000000" stroke="none" 
	d="
M587.566284,216.053558 
	C588.605530,216.226501 589.944336,216.632996 590.026917,217.217163 
	C590.303772,219.174484 590.132019,221.195267 590.132019,223.572357 
	C593.633057,223.572357 597.021179,223.572357 600.600647,223.572357 
	C600.979004,220.897614 601.378357,218.074280 601.777710,215.250946 
	C602.391541,215.349838 603.005432,215.448730 603.619263,215.547623 
	C603.619263,222.505341 603.619263,229.463043 603.619263,236.420746 
	C603.053711,236.529984 602.488159,236.639221 601.922668,236.748444 
	C601.470337,233.618057 601.018005,230.487686 600.531982,227.123688 
	C597.343750,227.123688 594.073975,227.123688 590.392944,227.123688 
	C590.234802,230.184311 590.076416,233.248398 589.912903,236.412094 
	C586.640564,235.096054 586.535339,234.183136 587.566284,216.053558 
z"/>
<path fill="#1E2F7E" opacity="1.000000" stroke="none" 
	d="
M457.123169,215.575470 
	C458.277161,218.090118 459.020782,220.701035 459.874451,223.698212 
	C462.700745,223.698212 466.098480,223.698212 470.108795,223.698212 
	C470.108795,220.923782 470.108795,218.236099 470.108795,215.212753 
	C473.829407,217.377441 474.050079,233.945190 470.306702,237.031677 
	C470.107788,233.547333 469.936920,230.554779 469.746826,227.224976 
	C466.389648,227.224976 463.005005,227.224976 459.250336,227.224976 
	C459.110382,230.193146 458.966187,233.250687 458.817383,236.406754 
	C455.806702,235.311905 454.824951,223.874741 457.123169,215.575470 
z"/>
<path fill="#1F317F" opacity="1.000000" stroke="none" 
	d="
M512.655029,228.544739 
	C514.150513,224.624252 515.403076,221.023148 516.895081,217.524124 
	C517.264954,216.656769 518.327209,215.775574 519.230164,215.556870 
	C519.800964,215.418594 521.065613,216.343185 521.336914,217.052155 
	C523.734680,223.317139 525.979492,229.640701 528.476074,236.515808 
	C523.118958,236.692749 524.960144,229.720123 519.156494,229.732056 
	C513.296814,229.744125 514.688477,236.125015 509.479004,237.109207 
	C510.742706,233.676544 511.621582,231.289169 512.655029,228.544739 
M516.281982,225.920105 
	C517.941345,226.758438 519.600769,227.596771 521.260132,228.435089 
	C521.523132,227.991974 521.786133,227.548843 522.049072,227.105728 
	C521.231689,224.709732 520.414307,222.313736 519.106384,218.479919 
	C517.948792,221.617584 517.288574,223.407104 516.281982,225.920105 
z"/>
<path fill="#263783" opacity="1.000000" stroke="none" 
	d="
M833.048950,224.068649 
	C832.042053,221.099976 831.142700,218.505188 830.243347,215.910400 
	C830.764893,215.663193 831.286377,215.415985 831.807861,215.168777 
	C836.386902,219.587509 835.858276,226.791107 839.298279,231.967499 
	C842.424988,226.547958 842.265991,219.744019 846.330261,215.036621 
	C847.000061,215.318954 847.669922,215.601288 848.339722,215.883636 
	C845.916382,222.439697 843.533447,229.012177 840.907776,235.486160 
	C840.812195,235.721863 837.492493,235.407776 837.110107,234.637558 
	C835.495850,231.386383 834.425659,227.865067 833.048950,224.068649 
z"/>
<path fill="#2E3E88" opacity="1.000000" stroke="none" 
	d="
M570.214539,225.934677 
	C570.214478,229.784653 570.214478,233.149963 570.214478,236.515274 
	C569.427429,236.570496 568.640442,236.625702 567.853394,236.680908 
	C566.183899,230.877777 567.803467,224.632324 566.894592,218.379257 
	C564.728516,218.184052 562.504456,217.983627 560.196228,217.775620 
	C561.900513,214.596085 574.298767,214.221008 577.840393,217.649063 
	C575.023865,217.917847 572.711914,218.138474 570.214600,218.376785 
	C570.214600,220.834229 570.214600,223.142120 570.214539,225.934677 
z"/>
<path fill="#2C3D87" opacity="1.000000" stroke="none" 
	d="
M339.471588,216.530396 
	C340.661255,215.950211 341.626343,215.643341 343.908875,214.917572 
	C341.083954,219.419388 338.533020,222.542450 337.058136,226.110321 
	C335.691162,229.417130 335.474365,233.199371 333.614380,236.618088 
	C332.760498,232.937164 332.355591,229.069763 330.925964,225.627991 
	C329.506317,222.210098 327.055695,219.220428 324.458191,215.090561 
	C330.851685,216.101578 330.623383,222.072739 334.480194,224.628632 
	C336.070435,222.018188 337.658722,219.410950 339.471588,216.530396 
z"/>
<path fill="#32428A" opacity="1.000000" stroke="none" 
	d="
M541.373291,236.678009 
	C540.035156,236.143295 538.394287,235.632919 538.377930,235.074936 
	C538.197998,228.935944 538.232544,222.788803 538.347656,216.646484 
	C538.356934,216.150070 539.390015,215.672867 540.823486,214.422501 
	C540.823486,221.373337 540.823486,227.363998 540.823486,234.026855 
	C544.947327,234.026855 548.436096,234.026855 551.924927,234.026855 
	C551.976746,234.723862 552.028564,235.420883 552.080383,236.117889 
	C548.661865,236.305328 545.243347,236.492767 541.373291,236.678009 
z"/>
<path fill="#1E2F7E" opacity="1.000000" stroke="none" 
	d="
M860.843506,236.427231 
	C859.968018,236.160904 859.107971,235.802765 859.103455,235.434067 
	C859.022034,228.845367 859.044312,222.255356 859.044312,215.483521 
	C862.186218,216.736496 863.159363,228.369278 860.843506,236.427231 
z"/>
<path fill="#FCFCFD" opacity="1.000000" stroke="none" 
	d="
M355.722107,90.847488 
	C364.206573,91.613297 367.809662,94.422165 370.140869,102.106255 
	C373.166779,112.080101 373.021820,122.226913 370.639008,132.230118 
	C368.425415,141.522949 363.411896,144.983475 353.729889,145.000977 
	C350.739014,145.006393 347.748169,145.001816 344.423706,145.001816 
	C344.423706,127.014626 344.423706,109.119484 344.423706,90.835907 
	C348.056976,90.835907 351.659729,90.835907 355.722107,90.847488 
z"/>
<path fill="#F7F8FB" opacity="1.000000" stroke="none" 
	d="
M975.691528,134.052673 
	C978.639648,144.472321 975.557739,146.522583 968.927612,147.030075 
	C965.682129,147.278503 962.920776,146.011124 962.708984,142.114746 
	C962.501770,138.300308 963.522339,134.978516 967.778259,134.161102 
	C970.190796,133.697723 972.750732,134.002289 975.691528,134.052673 
z"/>
<path fill="#FAFAFC" opacity="1.000000" stroke="none" 
	d="
M425.094696,124.315781 
	C425.721222,121.119370 425.599426,117.832314 427.133881,115.788994 
	C428.778412,113.599045 432.110474,111.213806 434.467896,111.436378 
	C436.788330,111.655464 440.466736,114.884148 440.666870,117.057709 
	C441.404297,125.065552 441.260406,133.201721 440.793213,141.251633 
	C440.587799,144.791397 437.943909,147.068054 433.891327,147.030975 
	C429.774414,146.993271 426.977448,144.943802 426.380859,141.125244 
	C425.539093,135.737885 425.473053,130.229324 425.094696,124.315781 
z"/>
<path fill="#FAFBFC" opacity="1.000000" stroke="none" 
	d="
M606.862183,126.132240 
	C607.327087,122.550484 607.354065,119.295189 608.358704,116.376442 
	C609.485352,113.102936 611.945923,110.784790 615.895386,111.028725 
	C619.819763,111.271118 622.407654,113.692711 622.603516,117.215118 
	C623.042297,125.105667 623.099915,133.059616 622.594666,140.941711 
	C622.360779,144.590454 619.771484,147.190735 615.405334,147.029449 
	C611.301025,146.877823 608.656860,144.832138 608.059021,140.954865 
	C607.329346,136.222977 607.228516,131.394135 606.862183,126.132240 
z"/>
<path fill="#F8F8FB" opacity="1.000000" stroke="none" 
	d="
M817.596313,118.558945 
	C817.047058,119.978699 816.486145,121.830322 815.824280,121.867096 
	C811.220398,122.122917 806.595581,122.002182 801.979980,122.002182 
	C802.036194,114.366829 803.898926,111.158020 808.491577,110.376068 
	C812.991943,109.609810 815.560425,111.817268 817.596313,118.558945 
z"/>
<path fill="#FDFDFE" opacity="1.000000" stroke="none" 
	d="
M717.419312,218.178391 
	C720.081055,222.745087 719.279236,224.502258 714.736145,224.876602 
	C712.947815,225.023972 711.137207,224.900742 708.984558,224.900742 
	C708.907837,223.525772 708.807251,222.420258 708.796265,221.313873 
	C708.786682,220.352844 708.878601,219.390808 708.944763,218.038940 
	C711.781616,218.038940 714.388855,218.038940 717.419312,218.178391 
z"/>
<path fill="#F3F4F8" opacity="1.000000" stroke="none" 
	d="
M816.038086,218.654510 
	C818.038879,222.739029 816.568237,224.616562 812.678101,224.875336 
	C810.732727,225.004761 808.771606,224.897888 806.619934,224.897888 
	C806.619934,222.551117 806.619934,220.617294 806.619934,217.930435 
	C809.671509,218.070786 812.699890,218.210052 816.038086,218.654510 
z"/>
<path fill="#F4F5F9" opacity="1.000000" stroke="none" 
	d="
M421.723358,217.911133 
	C423.447723,219.045853 424.728394,220.179016 426.009033,221.312195 
	C424.700378,222.497406 423.567535,224.252731 422.038788,224.724152 
	C420.108612,225.319366 417.855652,224.867798 415.526062,224.867798 
	C415.526062,222.540665 415.526062,220.608170 415.526062,217.909576 
	C417.458099,217.909576 419.368866,217.909576 421.723358,217.911133 
z"/>
<path fill="#F9F9FC" opacity="1.000000" stroke="none" 
	d="
M369.817261,224.470016 
	C369.962219,229.320557 369.129730,233.279434 363.915894,234.275833 
	C359.641418,235.092697 356.718842,232.882385 355.716156,228.389526 
	C354.673553,223.717743 356.634094,219.211929 360.228516,218.018906 
	C364.596252,216.569214 367.604095,218.479599 369.817261,224.470016 
z"/>
<path fill="#FAFAFC" opacity="1.000000" stroke="none" 
	d="
M662.678467,222.773010 
	C663.378601,229.865326 661.911621,233.154755 657.907654,234.175522 
	C653.962769,235.181229 650.387024,233.320755 649.180908,229.634933 
	C647.703247,225.119049 649.375854,219.871979 652.804993,218.266083 
	C656.441833,216.562912 659.919312,218.033371 662.678467,222.773010 
z"/>
<path fill="#DCDEEB" opacity="1.000000" stroke="none" 
	d="
M516.455139,225.558380 
	C517.288574,223.407104 517.948792,221.617584 519.106384,218.479919 
	C520.414307,222.313736 521.231689,224.709732 522.049072,227.105728 
	C521.786133,227.548843 521.523132,227.991974 521.260132,228.435089 
	C519.600769,227.596771 517.941345,226.758438 516.455139,225.558380 
z"/>
</svg>